# xmcd
# 
# Track frame offsets:
#     150
#     10350
#     22901
#     33345
#     45148
#     58502
#     69305
#     79915
#     90778
#     98881
#     112493
#     125091
#     136129
#     148522
#     160044
#     171543
#     182866
#     198011
# 
# Disc length: 2834
# 
# Revision: 1
# Processed by: cddbd v1.5.2PL0 Copyright (c) Steve Scherf et al.
# Submitted via: fre:ac v1.0.31
# 
DISCID=e90b1012
DTITLE=The Andrews Sisters - The Andrew Sisters Anthology The Deluxe Edition
DYEAR=2006
DGENRE=Big Band
TTITLE0=Boogie Woogie Bugle Boy
TTITLE1=Here Comes The Navy (Beer Barrel Polka)
TTITLE2=Any Bonds Today
TTITLE3=Is You Is, Or Is You Ain't My Baby
TTITLE4=Down In The Valley
TTITLE5=Straighten Up and Fly Right
TTITLE6=Put That Ring On My Finger
TTITLE7=The Three Caballeros
TTITLE8=Vic'try Polka
TTITLE9=The Blond Sailor
TTITLE10=Corns for My Country
TTITLE11=Lullaby of Broadway
TTITLE12=Don't Blame Me
TTITLE13=Sing A Tropical Song
TTITLE14=Rhumboogie
TTITLE15=Money Is the Root Of All Evil
TTITLE16=Red River Valley
TTITLE17=The Andrew Sisters Medley of Hits
EXTD=
EXTT0=
EXTT1=
EXTT2=
EXTT3=
EXTT4=
EXTT5=
EXTT6=
EXTT7=
EXTT8=
EXTT9=
EXTT10=
EXTT11=
EXTT12=
EXTT13=
EXTT14=
EXTT15=
EXTT16=
EXTT17=
PLAYORDER=
